# xmcd CD database file
#
# Track frame offsets:
#	150
#	32342
#	61092
#	81452
#	122840
#	137955
#	167682
#	182902
#	211345
#	231260
#
# Disc length: 3470 seconds
#
# Revision: 0
# Processed by: cddbd v1.5.1PL2 Copyright (c) Steve Scherf et al.
# Submitted via: CDex 1.51
#
DISCID=890d8c0a
DTITLE=Jacques Vidal - Saida
DYEAR=2001
DGENRE=Jazz
TTITLE0=Saida
TTITLE1=Reflet
TTITLE2=Bird Food
TTITLE3=Oriental Dreams
TTITLE4=Hearts and Flowers
TTITLE5=Phil's Drums
TTITLE6=Tziganes
TTITLE7=Are You All The Things
TTITLE8=Valse Nouvelle
TTITLE9=Saida II
EXTD=YEAR: 2001
EXTT0=
EXTT1=
EXTT2=
EXTT3=
EXTT4=
EXTT5=
EXTT6=
EXTT7=
EXTT8=
EXTT9=
PLAYORDER=
